<mxfile host="app.diagrams.net" modified="2021-10-15T12:29:53.174Z" agent="5.0 (Macintosh; Intel Mac OS X 10_15_7) AppleWebKit/537.36 (KHTML, like Gecko) Chrome/94.0.4606.61 Safari/537.36" etag="J97M10RiHRsISuhOqkYG" version="15.5.2" type="github">
  <diagram id="C5RBs43oDa-KdzZeNtuy" name="Page-1">
    <mxGraphModel dx="1426" dy="769" grid="1" gridSize="10" guides="1" tooltips="1" connect="1" arrows="1" fold="1" page="1" pageScale="1" pageWidth="827" pageHeight="1169" math="0" shadow="0">
      <root>
        <mxCell id="WIyWlLk6GJQsqaUBKTNV-0" />
        <mxCell id="WIyWlLk6GJQsqaUBKTNV-1" parent="WIyWlLk6GJQsqaUBKTNV-0" />
        <mxCell id="WIyWlLk6GJQsqaUBKTNV-2" value="" style="rounded=0;html=1;jettySize=auto;orthogonalLoop=1;fontSize=11;endArrow=block;endFill=0;endSize=8;strokeWidth=1;shadow=0;labelBackgroundColor=none;edgeStyle=orthogonalEdgeStyle;" parent="WIyWlLk6GJQsqaUBKTNV-1" edge="1">
          <mxGeometry relative="1" as="geometry">
            <mxPoint x="220" y="120" as="sourcePoint" />
            <mxPoint x="220" y="170" as="targetPoint" />
          </mxGeometry>
        </mxCell>
        <mxCell id="WIyWlLk6GJQsqaUBKTNV-4" value="" style="rounded=0;html=1;jettySize=auto;orthogonalLoop=1;fontSize=11;endArrow=block;endFill=0;endSize=8;strokeWidth=1;shadow=0;labelBackgroundColor=none;edgeStyle=orthogonalEdgeStyle;exitX=0.5;exitY=1;exitDx=0;exitDy=0;" parent="WIyWlLk6GJQsqaUBKTNV-1" source="WsvOxEXxFiNZ6iXjlZCP-1" edge="1">
          <mxGeometry y="20" relative="1" as="geometry">
            <mxPoint as="offset" />
            <mxPoint x="220" y="250" as="sourcePoint" />
            <mxPoint x="220" y="290" as="targetPoint" />
            <Array as="points" />
          </mxGeometry>
        </mxCell>
        <mxCell id="WIyWlLk6GJQsqaUBKTNV-7" value="標準入力の値を１文字ずつ要素として配列化" style="rounded=1;whiteSpace=wrap;html=1;fontSize=12;glass=0;strokeWidth=1;shadow=0;" parent="WIyWlLk6GJQsqaUBKTNV-1" vertex="1">
          <mxGeometry x="155" y="290" width="130" height="70" as="geometry" />
        </mxCell>
        <mxCell id="WIyWlLk6GJQsqaUBKTNV-8" value="" style="rounded=0;html=1;jettySize=auto;orthogonalLoop=1;fontSize=11;endArrow=block;endFill=0;endSize=8;strokeWidth=1;shadow=0;labelBackgroundColor=none;edgeStyle=orthogonalEdgeStyle;exitX=0.5;exitY=1;exitDx=0;exitDy=0;" parent="WIyWlLk6GJQsqaUBKTNV-1" source="WIyWlLk6GJQsqaUBKTNV-7" edge="1">
          <mxGeometry x="0.4286" y="30" relative="1" as="geometry">
            <mxPoint as="offset" />
            <mxPoint x="220" y="370" as="sourcePoint" />
            <mxPoint x="220" y="430" as="targetPoint" />
          </mxGeometry>
        </mxCell>
        <mxCell id="WsvOxEXxFiNZ6iXjlZCP-0" value="開始" style="ellipse;whiteSpace=wrap;html=1;fontSize=12;" vertex="1" parent="WIyWlLk6GJQsqaUBKTNV-1">
          <mxGeometry x="160" y="40" width="120" height="80" as="geometry" />
        </mxCell>
        <mxCell id="WsvOxEXxFiNZ6iXjlZCP-1" value="標準入力" style="shape=parallelogram;perimeter=parallelogramPerimeter;whiteSpace=wrap;html=1;fixedSize=1;fontSize=12;" vertex="1" parent="WIyWlLk6GJQsqaUBKTNV-1">
          <mxGeometry x="160" y="170" width="120" height="60" as="geometry" />
        </mxCell>
        <mxCell id="WsvOxEXxFiNZ6iXjlZCP-2" value="置き換え文字列を格納するための配列を初期化" style="shape=hexagon;perimeter=hexagonPerimeter2;whiteSpace=wrap;html=1;fixedSize=1;fontSize=12;" vertex="1" parent="WIyWlLk6GJQsqaUBKTNV-1">
          <mxGeometry x="155" y="430" width="130" height="80" as="geometry" />
        </mxCell>
        <mxCell id="WsvOxEXxFiNZ6iXjlZCP-4" value="配列の中身を一つずつ取り出しループする" style="strokeWidth=2;html=1;shape=mxgraph.flowchart.loop_limit;whiteSpace=wrap;fontSize=12;" vertex="1" parent="WIyWlLk6GJQsqaUBKTNV-1">
          <mxGeometry x="155" y="570" width="130" height="60" as="geometry" />
        </mxCell>
        <mxCell id="WsvOxEXxFiNZ6iXjlZCP-5" value="" style="rounded=0;html=1;jettySize=auto;orthogonalLoop=1;fontSize=11;endArrow=block;endFill=0;endSize=8;strokeWidth=1;shadow=0;labelBackgroundColor=none;edgeStyle=orthogonalEdgeStyle;" edge="1" parent="WIyWlLk6GJQsqaUBKTNV-1">
          <mxGeometry x="0.4286" y="30" relative="1" as="geometry">
            <mxPoint as="offset" />
            <mxPoint x="219.5" y="510" as="sourcePoint" />
            <mxPoint x="219.5" y="570" as="targetPoint" />
          </mxGeometry>
        </mxCell>
        <mxCell id="WsvOxEXxFiNZ6iXjlZCP-8" value="" style="rounded=0;html=1;jettySize=auto;orthogonalLoop=1;fontSize=11;endArrow=block;endFill=0;endSize=8;strokeWidth=1;shadow=0;labelBackgroundColor=none;edgeStyle=orthogonalEdgeStyle;" edge="1" parent="WIyWlLk6GJQsqaUBKTNV-1">
          <mxGeometry x="0.4286" y="30" relative="1" as="geometry">
            <mxPoint as="offset" />
            <mxPoint x="219.5" y="630" as="sourcePoint" />
            <mxPoint x="219.5" y="690" as="targetPoint" />
          </mxGeometry>
        </mxCell>
        <mxCell id="WsvOxEXxFiNZ6iXjlZCP-9" value="取り出した要素の文字列が「A」であるか" style="strokeWidth=2;html=1;shape=mxgraph.flowchart.decision;whiteSpace=wrap;fontSize=12;" vertex="1" parent="WIyWlLk6GJQsqaUBKTNV-1">
          <mxGeometry x="160" y="690" width="120" height="100" as="geometry" />
        </mxCell>
        <mxCell id="WsvOxEXxFiNZ6iXjlZCP-10" value="" style="endArrow=none;html=1;rounded=0;fontSize=12;" edge="1" parent="WIyWlLk6GJQsqaUBKTNV-1">
          <mxGeometry width="50" height="50" relative="1" as="geometry">
            <mxPoint x="220" y="980" as="sourcePoint" />
            <mxPoint x="220" y="920" as="targetPoint" />
            <Array as="points">
              <mxPoint x="220" y="930" />
            </Array>
          </mxGeometry>
        </mxCell>
        <mxCell id="WsvOxEXxFiNZ6iXjlZCP-11" value="ループ終了" style="strokeWidth=2;html=1;shape=mxgraph.flowchart.loop_limit;whiteSpace=wrap;fontSize=12;" vertex="1" parent="WIyWlLk6GJQsqaUBKTNV-1">
          <mxGeometry x="170" y="980" width="100" height="60" as="geometry" />
        </mxCell>
        <mxCell id="WsvOxEXxFiNZ6iXjlZCP-12" value="" style="rounded=0;html=1;jettySize=auto;orthogonalLoop=1;fontSize=11;endArrow=block;endFill=0;endSize=8;strokeWidth=1;shadow=0;labelBackgroundColor=none;edgeStyle=orthogonalEdgeStyle;" edge="1" parent="WIyWlLk6GJQsqaUBKTNV-1">
          <mxGeometry x="0.4286" y="30" relative="1" as="geometry">
            <mxPoint as="offset" />
            <mxPoint x="219.5" y="790" as="sourcePoint" />
            <mxPoint x="219.5" y="850" as="targetPoint" />
          </mxGeometry>
        </mxCell>
        <mxCell id="WsvOxEXxFiNZ6iXjlZCP-13" value="置き換え文字列を格納するための配列に置き換え後の文字列を追加" style="rounded=1;whiteSpace=wrap;html=1;absoluteArcSize=1;arcSize=14;strokeWidth=2;fontSize=12;" vertex="1" parent="WIyWlLk6GJQsqaUBKTNV-1">
          <mxGeometry x="150" y="850" width="140" height="70" as="geometry" />
        </mxCell>
        <mxCell id="WsvOxEXxFiNZ6iXjlZCP-14" value="Yes" style="text;html=1;align=center;verticalAlign=middle;resizable=0;points=[];autosize=1;strokeColor=none;fillColor=none;fontSize=12;" vertex="1" parent="WIyWlLk6GJQsqaUBKTNV-1">
          <mxGeometry x="220" y="810" width="40" height="20" as="geometry" />
        </mxCell>
        <mxCell id="WsvOxEXxFiNZ6iXjlZCP-16" value="" style="endArrow=classic;html=1;rounded=0;fontSize=12;" edge="1" parent="WIyWlLk6GJQsqaUBKTNV-1">
          <mxGeometry width="50" height="50" relative="1" as="geometry">
            <mxPoint x="280" y="740" as="sourcePoint" />
            <mxPoint x="350" y="740" as="targetPoint" />
          </mxGeometry>
        </mxCell>
        <mxCell id="WsvOxEXxFiNZ6iXjlZCP-17" value="No" style="text;html=1;align=center;verticalAlign=middle;resizable=0;points=[];autosize=1;strokeColor=none;fillColor=none;fontSize=12;" vertex="1" parent="WIyWlLk6GJQsqaUBKTNV-1">
          <mxGeometry x="285" y="720" width="30" height="20" as="geometry" />
        </mxCell>
        <mxCell id="WsvOxEXxFiNZ6iXjlZCP-18" value="取り出した要素の文字列が「E」であるか" style="strokeWidth=2;html=1;shape=mxgraph.flowchart.decision;whiteSpace=wrap;fontSize=12;" vertex="1" parent="WIyWlLk6GJQsqaUBKTNV-1">
          <mxGeometry x="350" y="690" width="120" height="100" as="geometry" />
        </mxCell>
        <mxCell id="WsvOxEXxFiNZ6iXjlZCP-19" value="" style="rounded=0;html=1;jettySize=auto;orthogonalLoop=1;fontSize=11;endArrow=block;endFill=0;endSize=8;strokeWidth=1;shadow=0;labelBackgroundColor=none;edgeStyle=orthogonalEdgeStyle;" edge="1" parent="WIyWlLk6GJQsqaUBKTNV-1">
          <mxGeometry x="0.4286" y="30" relative="1" as="geometry">
            <mxPoint as="offset" />
            <mxPoint x="409.5" y="790" as="sourcePoint" />
            <mxPoint x="409.5" y="850" as="targetPoint" />
          </mxGeometry>
        </mxCell>
        <mxCell id="WsvOxEXxFiNZ6iXjlZCP-20" value="置き換え文字列を格納するための配列に置き換え後の文字列を追加" style="rounded=1;whiteSpace=wrap;html=1;absoluteArcSize=1;arcSize=14;strokeWidth=2;fontSize=12;" vertex="1" parent="WIyWlLk6GJQsqaUBKTNV-1">
          <mxGeometry x="340" y="850" width="140" height="70" as="geometry" />
        </mxCell>
        <mxCell id="WsvOxEXxFiNZ6iXjlZCP-21" value="Yes" style="text;html=1;align=center;verticalAlign=middle;resizable=0;points=[];autosize=1;strokeColor=none;fillColor=none;fontSize=12;" vertex="1" parent="WIyWlLk6GJQsqaUBKTNV-1">
          <mxGeometry x="410" y="810" width="40" height="20" as="geometry" />
        </mxCell>
        <mxCell id="WsvOxEXxFiNZ6iXjlZCP-22" value="" style="endArrow=classic;html=1;rounded=0;fontSize=12;" edge="1" parent="WIyWlLk6GJQsqaUBKTNV-1">
          <mxGeometry width="50" height="50" relative="1" as="geometry">
            <mxPoint x="470" y="740" as="sourcePoint" />
            <mxPoint x="540" y="740" as="targetPoint" />
          </mxGeometry>
        </mxCell>
        <mxCell id="WsvOxEXxFiNZ6iXjlZCP-23" value="No" style="text;html=1;align=center;verticalAlign=middle;resizable=0;points=[];autosize=1;strokeColor=none;fillColor=none;fontSize=12;" vertex="1" parent="WIyWlLk6GJQsqaUBKTNV-1">
          <mxGeometry x="475" y="720" width="30" height="20" as="geometry" />
        </mxCell>
        <mxCell id="WsvOxEXxFiNZ6iXjlZCP-24" value="取り出した要素の文字列が「G」であるか" style="strokeWidth=2;html=1;shape=mxgraph.flowchart.decision;whiteSpace=wrap;fontSize=12;" vertex="1" parent="WIyWlLk6GJQsqaUBKTNV-1">
          <mxGeometry x="540" y="690" width="120" height="100" as="geometry" />
        </mxCell>
        <mxCell id="WsvOxEXxFiNZ6iXjlZCP-25" value="" style="rounded=0;html=1;jettySize=auto;orthogonalLoop=1;fontSize=11;endArrow=block;endFill=0;endSize=8;strokeWidth=1;shadow=0;labelBackgroundColor=none;edgeStyle=orthogonalEdgeStyle;" edge="1" parent="WIyWlLk6GJQsqaUBKTNV-1">
          <mxGeometry x="0.4286" y="30" relative="1" as="geometry">
            <mxPoint as="offset" />
            <mxPoint x="599.5" y="790" as="sourcePoint" />
            <mxPoint x="599.5" y="850" as="targetPoint" />
          </mxGeometry>
        </mxCell>
        <mxCell id="WsvOxEXxFiNZ6iXjlZCP-26" value="置き換え文字列を格納するための配列に置き換え後の文字列を追加" style="rounded=1;whiteSpace=wrap;html=1;absoluteArcSize=1;arcSize=14;strokeWidth=2;fontSize=12;" vertex="1" parent="WIyWlLk6GJQsqaUBKTNV-1">
          <mxGeometry x="530" y="850" width="140" height="70" as="geometry" />
        </mxCell>
        <mxCell id="WsvOxEXxFiNZ6iXjlZCP-27" value="Yes" style="text;html=1;align=center;verticalAlign=middle;resizable=0;points=[];autosize=1;strokeColor=none;fillColor=none;fontSize=12;" vertex="1" parent="WIyWlLk6GJQsqaUBKTNV-1">
          <mxGeometry x="600" y="810" width="40" height="20" as="geometry" />
        </mxCell>
        <mxCell id="WsvOxEXxFiNZ6iXjlZCP-28" value="" style="endArrow=classic;html=1;rounded=0;fontSize=12;" edge="1" parent="WIyWlLk6GJQsqaUBKTNV-1">
          <mxGeometry width="50" height="50" relative="1" as="geometry">
            <mxPoint x="660" y="740" as="sourcePoint" />
            <mxPoint x="730" y="740" as="targetPoint" />
          </mxGeometry>
        </mxCell>
        <mxCell id="WsvOxEXxFiNZ6iXjlZCP-29" value="No" style="text;html=1;align=center;verticalAlign=middle;resizable=0;points=[];autosize=1;strokeColor=none;fillColor=none;fontSize=12;" vertex="1" parent="WIyWlLk6GJQsqaUBKTNV-1">
          <mxGeometry x="665" y="720" width="30" height="20" as="geometry" />
        </mxCell>
        <mxCell id="WsvOxEXxFiNZ6iXjlZCP-30" value="取り出した要素の文字列が「I」であるか" style="strokeWidth=2;html=1;shape=mxgraph.flowchart.decision;whiteSpace=wrap;fontSize=12;" vertex="1" parent="WIyWlLk6GJQsqaUBKTNV-1">
          <mxGeometry x="730" y="690" width="120" height="100" as="geometry" />
        </mxCell>
        <mxCell id="WsvOxEXxFiNZ6iXjlZCP-31" value="" style="rounded=0;html=1;jettySize=auto;orthogonalLoop=1;fontSize=11;endArrow=block;endFill=0;endSize=8;strokeWidth=1;shadow=0;labelBackgroundColor=none;edgeStyle=orthogonalEdgeStyle;" edge="1" parent="WIyWlLk6GJQsqaUBKTNV-1">
          <mxGeometry x="0.4286" y="30" relative="1" as="geometry">
            <mxPoint as="offset" />
            <mxPoint x="789.5" y="790" as="sourcePoint" />
            <mxPoint x="789.5" y="850" as="targetPoint" />
          </mxGeometry>
        </mxCell>
        <mxCell id="WsvOxEXxFiNZ6iXjlZCP-32" value="置き換え文字列を格納するための配列に置き換え後の文字列を追加" style="rounded=1;whiteSpace=wrap;html=1;absoluteArcSize=1;arcSize=14;strokeWidth=2;fontSize=12;" vertex="1" parent="WIyWlLk6GJQsqaUBKTNV-1">
          <mxGeometry x="720" y="850" width="140" height="70" as="geometry" />
        </mxCell>
        <mxCell id="WsvOxEXxFiNZ6iXjlZCP-33" value="Yes" style="text;html=1;align=center;verticalAlign=middle;resizable=0;points=[];autosize=1;strokeColor=none;fillColor=none;fontSize=12;" vertex="1" parent="WIyWlLk6GJQsqaUBKTNV-1">
          <mxGeometry x="790" y="810" width="40" height="20" as="geometry" />
        </mxCell>
        <mxCell id="WsvOxEXxFiNZ6iXjlZCP-34" value="" style="endArrow=classic;html=1;rounded=0;fontSize=12;" edge="1" parent="WIyWlLk6GJQsqaUBKTNV-1">
          <mxGeometry width="50" height="50" relative="1" as="geometry">
            <mxPoint x="850" y="740" as="sourcePoint" />
            <mxPoint x="920" y="740" as="targetPoint" />
          </mxGeometry>
        </mxCell>
        <mxCell id="WsvOxEXxFiNZ6iXjlZCP-35" value="No" style="text;html=1;align=center;verticalAlign=middle;resizable=0;points=[];autosize=1;strokeColor=none;fillColor=none;fontSize=12;" vertex="1" parent="WIyWlLk6GJQsqaUBKTNV-1">
          <mxGeometry x="855" y="720" width="30" height="20" as="geometry" />
        </mxCell>
        <mxCell id="WsvOxEXxFiNZ6iXjlZCP-36" value="取り出した要素の文字列が「O」であるか" style="strokeWidth=2;html=1;shape=mxgraph.flowchart.decision;whiteSpace=wrap;fontSize=12;" vertex="1" parent="WIyWlLk6GJQsqaUBKTNV-1">
          <mxGeometry x="920" y="690" width="120" height="100" as="geometry" />
        </mxCell>
        <mxCell id="WsvOxEXxFiNZ6iXjlZCP-37" value="" style="rounded=0;html=1;jettySize=auto;orthogonalLoop=1;fontSize=11;endArrow=block;endFill=0;endSize=8;strokeWidth=1;shadow=0;labelBackgroundColor=none;edgeStyle=orthogonalEdgeStyle;" edge="1" parent="WIyWlLk6GJQsqaUBKTNV-1">
          <mxGeometry x="0.4286" y="30" relative="1" as="geometry">
            <mxPoint as="offset" />
            <mxPoint x="979.5" y="790" as="sourcePoint" />
            <mxPoint x="979.5" y="850" as="targetPoint" />
          </mxGeometry>
        </mxCell>
        <mxCell id="WsvOxEXxFiNZ6iXjlZCP-38" value="置き換え文字列を格納するための配列に置き換え後の文字列を追加" style="rounded=1;whiteSpace=wrap;html=1;absoluteArcSize=1;arcSize=14;strokeWidth=2;fontSize=12;" vertex="1" parent="WIyWlLk6GJQsqaUBKTNV-1">
          <mxGeometry x="910" y="850" width="140" height="70" as="geometry" />
        </mxCell>
        <mxCell id="WsvOxEXxFiNZ6iXjlZCP-39" value="Yes" style="text;html=1;align=center;verticalAlign=middle;resizable=0;points=[];autosize=1;strokeColor=none;fillColor=none;fontSize=12;" vertex="1" parent="WIyWlLk6GJQsqaUBKTNV-1">
          <mxGeometry x="980" y="810" width="40" height="20" as="geometry" />
        </mxCell>
        <mxCell id="WsvOxEXxFiNZ6iXjlZCP-40" value="" style="endArrow=classic;html=1;rounded=0;fontSize=12;" edge="1" parent="WIyWlLk6GJQsqaUBKTNV-1">
          <mxGeometry width="50" height="50" relative="1" as="geometry">
            <mxPoint x="1040" y="740" as="sourcePoint" />
            <mxPoint x="1110" y="740" as="targetPoint" />
          </mxGeometry>
        </mxCell>
        <mxCell id="WsvOxEXxFiNZ6iXjlZCP-41" value="No" style="text;html=1;align=center;verticalAlign=middle;resizable=0;points=[];autosize=1;strokeColor=none;fillColor=none;fontSize=12;" vertex="1" parent="WIyWlLk6GJQsqaUBKTNV-1">
          <mxGeometry x="1045" y="720" width="30" height="20" as="geometry" />
        </mxCell>
        <mxCell id="WsvOxEXxFiNZ6iXjlZCP-42" value="どれにも当てはまらないとき" style="strokeWidth=2;html=1;shape=mxgraph.flowchart.decision;whiteSpace=wrap;fontSize=12;" vertex="1" parent="WIyWlLk6GJQsqaUBKTNV-1">
          <mxGeometry x="1110" y="690" width="120" height="100" as="geometry" />
        </mxCell>
        <mxCell id="WsvOxEXxFiNZ6iXjlZCP-43" value="" style="rounded=0;html=1;jettySize=auto;orthogonalLoop=1;fontSize=11;endArrow=block;endFill=0;endSize=8;strokeWidth=1;shadow=0;labelBackgroundColor=none;edgeStyle=orthogonalEdgeStyle;" edge="1" parent="WIyWlLk6GJQsqaUBKTNV-1">
          <mxGeometry x="0.4286" y="30" relative="1" as="geometry">
            <mxPoint as="offset" />
            <mxPoint x="1169.5" y="790" as="sourcePoint" />
            <mxPoint x="1169.5" y="850" as="targetPoint" />
          </mxGeometry>
        </mxCell>
        <mxCell id="WsvOxEXxFiNZ6iXjlZCP-44" value="ループで取り出した文字列を格納するための配列に置き換え後の文字列を追加" style="rounded=1;whiteSpace=wrap;html=1;absoluteArcSize=1;arcSize=14;strokeWidth=2;fontSize=12;" vertex="1" parent="WIyWlLk6GJQsqaUBKTNV-1">
          <mxGeometry x="1090" y="850" width="160" height="80" as="geometry" />
        </mxCell>
        <mxCell id="WsvOxEXxFiNZ6iXjlZCP-45" value="Yes" style="text;html=1;align=center;verticalAlign=middle;resizable=0;points=[];autosize=1;strokeColor=none;fillColor=none;fontSize=12;" vertex="1" parent="WIyWlLk6GJQsqaUBKTNV-1">
          <mxGeometry x="1170" y="810" width="40" height="20" as="geometry" />
        </mxCell>
        <mxCell id="WsvOxEXxFiNZ6iXjlZCP-46" value="" style="endArrow=classic;html=1;rounded=0;fontSize=12;" edge="1" parent="WIyWlLk6GJQsqaUBKTNV-1">
          <mxGeometry width="50" height="50" relative="1" as="geometry">
            <mxPoint x="1230" y="740" as="sourcePoint" />
            <mxPoint x="1300" y="740" as="targetPoint" />
          </mxGeometry>
        </mxCell>
        <mxCell id="WsvOxEXxFiNZ6iXjlZCP-47" value="No" style="text;html=1;align=center;verticalAlign=middle;resizable=0;points=[];autosize=1;strokeColor=none;fillColor=none;fontSize=12;" vertex="1" parent="WIyWlLk6GJQsqaUBKTNV-1">
          <mxGeometry x="1235" y="720" width="30" height="20" as="geometry" />
        </mxCell>
        <mxCell id="WsvOxEXxFiNZ6iXjlZCP-48" value="" style="endArrow=none;html=1;rounded=0;fontSize=12;" edge="1" parent="WIyWlLk6GJQsqaUBKTNV-1">
          <mxGeometry width="50" height="50" relative="1" as="geometry">
            <mxPoint x="220" y="960" as="sourcePoint" />
            <mxPoint x="1170" y="960" as="targetPoint" />
          </mxGeometry>
        </mxCell>
        <mxCell id="WsvOxEXxFiNZ6iXjlZCP-49" value="" style="endArrow=none;html=1;rounded=0;fontSize=12;entryX=0.5;entryY=1;entryDx=0;entryDy=0;" edge="1" parent="WIyWlLk6GJQsqaUBKTNV-1" target="WsvOxEXxFiNZ6iXjlZCP-20">
          <mxGeometry width="50" height="50" relative="1" as="geometry">
            <mxPoint x="410" y="960" as="sourcePoint" />
            <mxPoint x="460" y="910" as="targetPoint" />
          </mxGeometry>
        </mxCell>
        <mxCell id="WsvOxEXxFiNZ6iXjlZCP-50" value="" style="endArrow=none;html=1;rounded=0;fontSize=12;entryX=0.5;entryY=1;entryDx=0;entryDy=0;" edge="1" parent="WIyWlLk6GJQsqaUBKTNV-1">
          <mxGeometry width="50" height="50" relative="1" as="geometry">
            <mxPoint x="599.5" y="960" as="sourcePoint" />
            <mxPoint x="599.5" y="920" as="targetPoint" />
          </mxGeometry>
        </mxCell>
        <mxCell id="WsvOxEXxFiNZ6iXjlZCP-51" value="" style="endArrow=none;html=1;rounded=0;fontSize=12;entryX=0.5;entryY=1;entryDx=0;entryDy=0;" edge="1" parent="WIyWlLk6GJQsqaUBKTNV-1">
          <mxGeometry width="50" height="50" relative="1" as="geometry">
            <mxPoint x="789" y="960" as="sourcePoint" />
            <mxPoint x="789" y="920" as="targetPoint" />
          </mxGeometry>
        </mxCell>
        <mxCell id="WsvOxEXxFiNZ6iXjlZCP-52" value="" style="endArrow=none;html=1;rounded=0;fontSize=12;entryX=0.5;entryY=1;entryDx=0;entryDy=0;" edge="1" parent="WIyWlLk6GJQsqaUBKTNV-1">
          <mxGeometry width="50" height="50" relative="1" as="geometry">
            <mxPoint x="979" y="960" as="sourcePoint" />
            <mxPoint x="979" y="920" as="targetPoint" />
          </mxGeometry>
        </mxCell>
        <mxCell id="WsvOxEXxFiNZ6iXjlZCP-53" value="" style="endArrow=none;html=1;rounded=0;fontSize=12;" edge="1" parent="WIyWlLk6GJQsqaUBKTNV-1">
          <mxGeometry width="50" height="50" relative="1" as="geometry">
            <mxPoint x="1170" y="960" as="sourcePoint" />
            <mxPoint x="1170" y="930" as="targetPoint" />
          </mxGeometry>
        </mxCell>
        <mxCell id="WsvOxEXxFiNZ6iXjlZCP-54" value="配列の要素を全て文字列連結する" style="rounded=1;whiteSpace=wrap;html=1;fontSize=12;glass=0;strokeWidth=1;shadow=0;" vertex="1" parent="WIyWlLk6GJQsqaUBKTNV-1">
          <mxGeometry x="155" y="1099" width="130" height="70" as="geometry" />
        </mxCell>
        <mxCell id="WsvOxEXxFiNZ6iXjlZCP-55" value="" style="endArrow=none;html=1;rounded=0;fontSize=12;" edge="1" parent="WIyWlLk6GJQsqaUBKTNV-1">
          <mxGeometry width="50" height="50" relative="1" as="geometry">
            <mxPoint x="220" y="1100" as="sourcePoint" />
            <mxPoint x="220" y="1040" as="targetPoint" />
            <Array as="points">
              <mxPoint x="220" y="1050" />
            </Array>
          </mxGeometry>
        </mxCell>
        <mxCell id="WsvOxEXxFiNZ6iXjlZCP-56" value="" style="endArrow=none;html=1;rounded=0;fontSize=12;" edge="1" parent="WIyWlLk6GJQsqaUBKTNV-1">
          <mxGeometry width="50" height="50" relative="1" as="geometry">
            <mxPoint x="219" y="1229" as="sourcePoint" />
            <mxPoint x="219" y="1169" as="targetPoint" />
            <Array as="points">
              <mxPoint x="219" y="1179" />
            </Array>
          </mxGeometry>
        </mxCell>
        <mxCell id="WsvOxEXxFiNZ6iXjlZCP-57" value="標準出力" style="shape=parallelogram;perimeter=parallelogramPerimeter;whiteSpace=wrap;html=1;fixedSize=1;fontSize=12;" vertex="1" parent="WIyWlLk6GJQsqaUBKTNV-1">
          <mxGeometry x="155" y="1230" width="120" height="60" as="geometry" />
        </mxCell>
        <mxCell id="WsvOxEXxFiNZ6iXjlZCP-58" value="終了" style="ellipse;whiteSpace=wrap;html=1;fontSize=12;" vertex="1" parent="WIyWlLk6GJQsqaUBKTNV-1">
          <mxGeometry x="160" y="1350" width="120" height="80" as="geometry" />
        </mxCell>
        <mxCell id="WsvOxEXxFiNZ6iXjlZCP-59" value="" style="endArrow=none;html=1;rounded=0;fontSize=12;" edge="1" parent="WIyWlLk6GJQsqaUBKTNV-1">
          <mxGeometry width="50" height="50" relative="1" as="geometry">
            <mxPoint x="220" y="1350" as="sourcePoint" />
            <mxPoint x="220" y="1290" as="targetPoint" />
            <Array as="points">
              <mxPoint x="220" y="1300" />
            </Array>
          </mxGeometry>
        </mxCell>
      </root>
    </mxGraphModel>
  </diagram>
</mxfile>
